<svg width="22" height="18" viewBox="0 0 22 18" fill="none" xmlns="http://www.w3.org/2000/svg">
<path d="M8.8 11.8125H8.79931C8.79931 11.2437 8.84537 11.5056 5.87572 5.43129C5.269 4.19063 3.53169 4.18816 2.92394 5.43129C-0.0708127 11.5576 0.0006875 11.2616 0.0006875 11.8125H0C0 13.3657 1.97003 14.625 4.4 14.625C6.82997 14.625 8.8 13.3657 8.8 11.8125ZM4.4 6.1875L6.875 11.25H1.925L4.4 6.1875ZM21.9993 11.8125C21.9993 11.2437 22.0454 11.5056 19.0757 5.43129C18.469 4.19063 16.7317 4.18816 16.1239 5.43129C13.1292 11.5576 13.2007 11.2616 13.2007 11.8125H13.2C13.2 13.3657 15.17 14.625 17.6 14.625C20.03 14.625 22 13.3657 22 11.8125H21.9993ZM15.125 11.25L17.6 6.1875L20.075 11.25H15.125ZM18.15 15.75H12.1V5.3877C12.9082 5.02594 13.5149 4.28098 13.6947 3.375H18.15C18.4539 3.375 18.7 3.12328 18.7 2.8125V1.6875C18.7 1.37672 18.4539 1.125 18.15 1.125H13.1876C12.6858 0.445781 11.8968 0 11 0C10.1032 0 9.31425 0.445781 8.81237 1.125H3.85C3.54613 1.125 3.3 1.37672 3.3 1.6875V2.8125C3.3 3.12328 3.54613 3.375 3.85 3.375H8.30534C8.48513 4.28063 9.0915 5.02594 9.9 5.3877V15.75H3.85C3.54613 15.75 3.3 16.0017 3.3 16.3125V17.4375C3.3 17.7483 3.54613 18 3.85 18H18.15C18.4539 18 18.7 17.7483 18.7 17.4375V16.3125C18.7 16.0017 18.4539 15.75 18.15 15.75Z" fill="white"/>
</svg>
