<svg width="24" height="24" viewBox="0 0 24 24" fill="none" xmlns="http://www.w3.org/2000/svg">
<path d="M21.3301 12.91C21.4201 14.46 20.7101 15.95 19.4401 16.86L20.2101 18.35C20.4401 18.8 20.4701 19.33 20.2701 19.8C20.0801 20.27 19.6901 20.64 19.2101 20.8L18.4201 21.05C18.0911 21.1604 17.7361 21.1668 17.4033 21.0684C17.0705 20.97 16.7761 20.7716 16.5601 20.5L14.4401 18C13.5501 17.85 12.7101 17.47 12.0001 16.9C11.5001 17.05 11.0001 17.13 10.5001 17.13C9.62006 17.13 8.74006 16.86 8.00006 16.34C7.47006 16.5 6.93006 16.57 6.38006 16.56C5.59006 16.57 4.81006 16.41 4.08006 16.11C3.37704 15.797 2.77632 15.2924 2.34659 14.654C1.91687 14.0156 1.67549 13.2691 1.65006 12.5C1.57006 11.78 1.69006 11.05 2.00006 10.39C1.71006 9.64001 1.68006 8.82001 1.93006 8.06001C2.30006 7.11001 3.00006 6.32001 3.87006 5.82001C4.45006 4.13001 6.08006 3.00001 7.87006 3.12001C9.47006 1.62001 11.9201 1.46001 13.7001 2.75001C14.1201 2.64001 14.5601 2.58001 15.0001 2.58001C16.3601 2.55001 17.6501 3.15001 18.5001 4.22001C20.5401 4.75001 22.0001 6.57001 22.0801 8.69001C22.1301 9.80001 21.8301 10.89 21.2201 11.82C21.2901 12.18 21.3301 12.54 21.3301 12.91ZM16.3301 11.5C16.9001 11.57 17.3501 12 17.3501 12.57C17.3501 12.8352 17.2447 13.0896 17.0572 13.2771C16.8696 13.4647 16.6153 13.57 16.3501 13.57H15.7201C15.4001 14.47 14.8401 15.26 14.1001 15.86C14.3501 15.95 14.6101 16 14.8701 16.07C20.0001 16 19.4001 12.87 19.4001 12.82C19.3872 12.4798 19.3073 12.1455 19.1651 11.8362C19.0229 11.5268 18.8211 11.2486 18.5713 11.0173C18.3215 10.786 18.0285 10.6063 17.7091 10.4884C17.3897 10.3704 17.0502 10.3166 16.7101 10.33C16.4448 10.33 16.1905 10.2247 16.003 10.0371C15.8154 9.84958 15.7101 9.59523 15.7101 9.33001C15.7101 9.06479 15.8154 8.81044 16.003 8.6229C16.1905 8.43537 16.4448 8.33001 16.7101 8.33001C17.9401 8.36001 19.1201 8.82001 20.0401 9.63001C20.0901 9.34001 20.1201 9.04001 20.1201 8.74001C20.0601 7.50001 19.5001 6.42001 17.2501 6.21001C16.0001 3.25001 12.8501 4.89001 12.8501 5.81001C12.8201 6.04001 13.0601 6.53001 13.1001 6.56001C13.3653 6.56001 13.6196 6.66537 13.8072 6.8529C13.9947 7.04044 14.1001 7.29479 14.1001 7.56001C14.1001 8.11001 13.6501 8.56001 13.1001 8.56001C12.5701 8.54001 12.0701 8.34001 11.6701 8.00001C11.1901 8.31001 10.6401 8.50001 10.0701 8.56001C9.50006 8.61001 9.03006 8.21001 9.00006 7.66001C8.98193 7.52943 8.99061 7.39652 9.02558 7.2694C9.06054 7.14229 9.12104 7.02363 9.2034 6.92069C9.28576 6.81774 9.38824 6.73266 9.50458 6.67065C9.62092 6.60864 9.74868 6.57099 9.88006 6.56001C10.0401 6.54001 10.8201 6.42001 10.8201 5.79001C10.8201 5.13001 11.0701 4.50001 11.5001 4.00001C10.5801 3.75001 9.59006 4.08001 8.59006 5.29001C6.75006 5.00001 6.00006 5.25001 5.45006 7.20001C4.50006 7.67001 4.00006 8.00001 3.78006 9.00001C4.86006 8.78001 5.97006 8.87001 7.00006 9.25001C7.50006 9.44001 7.78006 10 7.59006 10.54C7.40006 11.06 6.82006 11.32 6.30006 11.13C5.57006 10.81 4.75006 10.79 4.00006 11.07C3.68006 11.34 3.68006 11.9 3.68006 12.34C3.68006 13.08 4.05006 13.77 4.68006 14.17C5.21006 14.44 5.80006 14.58 6.39006 14.57C6.24006 14.31 6.11006 14.04 6.00006 13.76C5.92133 13.5031 5.94531 13.2256 6.06695 12.986C6.18859 12.7464 6.39841 12.5633 6.65228 12.4753C6.90616 12.3872 7.18429 12.401 7.42819 12.5138C7.67209 12.6266 7.86274 12.8295 7.96006 13.08C8.36006 14.22 9.38006 15 10.5801 15.13C11.9501 15.06 13.1701 14.25 13.7701 13C14.0001 11.62 15.1101 11.5 16.3301 11.5ZM18.3301 18.97L17.7101 17.67L17.0001 17.83L18.0001 19.08L18.3301 18.97ZM13.6801 10.36C13.6887 10.1045 13.5993 9.85546 13.43 9.6639C13.2608 9.47234 13.0246 9.35287 12.7701 9.33001C12.0601 9.29001 11.3701 9.53001 10.8401 10C10.2701 10.58 9.97006 11.38 10.0001 12.19C10.0001 12.4552 10.1054 12.7096 10.293 12.8971C10.4805 13.0847 10.7348 13.19 11.0001 13.19C11.5701 13.19 12.0001 12.74 12.0001 12.19C12.0001 11.92 12.0701 11.65 12.2301 11.43C12.3501 11.33 12.5001 11.28 12.6601 11.28C13.2101 11.31 13.6801 10.9 13.6801 10.36Z" fill="white"/>
</svg>
