<svg width="35" height="35" viewBox="0 0 35 35" fill="none" xmlns="http://www.w3.org/2000/svg">
<rect width="35" height="35" rx="17.5" fill="#0A6FEC"/>
<path d="M19.7656 8.75C20.465 8.75006 21.1407 9.00376 21.6673 9.46405C22.1939 9.92435 22.5357 10.56 22.6294 11.2531C23.2637 11.2797 23.875 11.4989 24.3817 11.8816C24.8883 12.2642 25.2664 12.7921 25.4656 13.395C25.6648 13.9979 25.6757 14.6471 25.4967 15.2563C25.3177 15.8655 24.9574 16.4057 24.4637 16.805C25.0097 17.1406 25.4605 17.6104 25.7732 18.1698C26.0859 18.7291 26.25 19.3592 26.25 20V20.3125C26.2498 21.1427 25.9491 21.9448 25.4035 22.5706C24.8579 23.1963 24.1043 23.6035 23.2819 23.7169L23.1763 24.0569C22.9777 24.6925 22.5812 25.2481 22.0447 25.6426C21.5082 26.0371 20.8597 26.2499 20.1937 26.25H20C19.5148 26.2499 19.0363 26.1369 18.6024 25.9198C18.1684 25.7027 17.791 25.3876 17.5 24.9994C17.209 25.3876 16.8316 25.7027 16.3976 25.9198C15.9637 26.1369 15.4852 26.2499 15 26.25H14.8062C14.1403 26.2499 13.4918 26.0371 12.9553 25.6426C12.4188 25.2481 12.0223 24.6925 11.8238 24.0569L11.7181 23.7169C10.8957 23.6035 10.1421 23.1963 9.59648 22.5706C9.0509 21.9448 8.75022 21.1427 8.75 20.3125V20C8.74995 19.3592 8.91411 18.7291 9.22681 18.1698C9.53952 17.6104 9.99034 17.1406 10.5362 16.805C10.0426 16.4057 9.68231 15.8655 9.50332 15.2563C9.32434 14.6471 9.33517 13.9979 9.53436 13.395C9.73356 12.7921 10.1117 12.2642 10.6183 11.8816C11.125 11.4989 11.7363 11.2797 12.3706 11.2531C12.4465 10.6913 12.686 10.1642 13.0593 9.73741C13.4326 9.31066 13.9231 9.00313 14.4699 8.8531C15.0166 8.70307 15.5954 8.71718 16.1342 8.89366C16.673 9.07014 17.148 9.4012 17.5 9.84563C17.7705 9.50385 18.1148 9.22775 18.5072 9.038C18.8995 8.84825 19.3298 8.74979 19.7656 8.75ZM15.2344 10C14.7993 10 14.382 10.1729 14.0743 10.4805C13.7666 10.7882 13.5938 11.2055 13.5938 11.6406V11.875C13.5938 12.0408 13.5279 12.1997 13.4107 12.3169C13.2935 12.4342 13.1345 12.5 12.9688 12.5H12.5C12.0111 12.5001 11.5417 12.6912 11.1917 13.0325C10.8416 13.3737 10.6387 13.8382 10.6262 14.3269C10.6136 14.8155 10.7924 15.2898 11.1245 15.6486C11.4565 16.0074 11.9156 16.2223 12.4038 16.2475L12.5 16.25H12.8125C13.3927 16.25 13.9491 16.4805 14.3593 16.8907C14.7695 17.3009 15 17.8573 15 18.4375V18.8587C15.4174 19.0056 15.7694 19.2955 15.9935 19.677C16.2177 20.0586 16.2996 20.5071 16.2248 20.9432C16.1499 21.3794 15.9231 21.7749 15.5845 22.0599C15.246 22.3448 14.8175 22.5007 14.375 22.5C13.9335 22.499 13.5064 22.3422 13.1691 22.0572C12.8319 21.7722 12.606 21.3774 12.5313 20.9422C12.4566 20.507 12.5379 20.0594 12.7608 19.6783C12.9838 19.2972 13.3341 19.0069 13.75 18.8587V18.4375C13.75 18.1889 13.6512 17.9504 13.4754 17.7746C13.2996 17.5988 13.0611 17.5 12.8125 17.5H12.5L12.3713 17.5031C11.7313 17.5361 11.1285 17.8136 10.6872 18.2782C10.246 18.7429 9.99995 19.3592 10 20V20.3125C10 20.8927 10.2305 21.4491 10.6407 21.8593C11.0509 22.2695 11.6073 22.5 12.1875 22.5C12.3037 22.5 12.4176 22.5324 12.5164 22.5936C12.6152 22.6547 12.695 22.7422 12.7469 22.8463L12.7844 22.9387L13.0169 23.6837C13.136 24.0652 13.3738 24.3986 13.6957 24.6354C14.0175 24.8722 14.4067 24.9999 14.8062 25H15C15.4973 25 15.9742 24.8025 16.3258 24.4508C16.6775 24.0992 16.875 23.6223 16.875 23.125V15H16.1413C15.9944 15.4174 15.7045 15.7694 15.323 15.9935C14.9414 16.2177 14.4929 16.2996 14.0568 16.2248C13.6206 16.1499 13.2251 15.9231 12.9401 15.5845C12.6552 15.246 12.4993 14.8175 12.5 14.375C12.501 13.9335 12.6578 13.5064 12.9428 13.1691C13.2278 12.8319 13.6226 12.606 14.0578 12.5313C14.493 12.4566 14.9406 12.5379 15.3217 12.7608C15.7028 12.9838 15.9931 13.3341 16.1413 13.75H16.875V11.6406C16.875 11.2055 16.7021 10.7882 16.3945 10.4805C16.0868 10.1729 15.6695 10 15.2344 10ZM22.9981 17.55C22.9005 17.8019 22.7496 18.0297 22.5557 18.2178C22.3619 18.4059 22.1297 18.5499 21.875 18.64V19.0619C21.875 19.642 21.6445 20.1984 21.2343 20.6087C20.8241 21.0189 20.2677 21.2494 19.6875 21.2494H18.125V23.1244C18.125 23.6217 18.3225 24.0986 18.6742 24.4502C19.0258 24.8018 19.5027 24.9994 20 24.9994H20.1937C20.5933 24.9993 20.9823 24.8717 21.3042 24.635C21.6261 24.3984 21.8639 24.0651 21.9831 23.6837L22.2162 22.9381L22.2538 22.8456C22.3055 22.7417 22.3852 22.6543 22.4839 22.5931C22.5826 22.532 22.6964 22.4995 22.8125 22.4994C23.3927 22.4994 23.9491 22.2689 24.3593 21.8587C24.7695 21.4484 25 20.892 25 20.3119V20C25 19.4234 24.8008 18.8645 24.4359 18.418C24.0711 17.9715 23.5632 17.6649 22.9981 17.55ZM14.375 20C14.2092 20 14.0503 20.0658 13.9331 20.1831C13.8158 20.3003 13.75 20.4592 13.75 20.625C13.75 20.7908 13.8158 20.9497 13.9331 21.0669C14.0503 21.1842 14.2092 21.25 14.375 21.25C14.5408 21.25 14.6997 21.1842 14.8169 21.0669C14.9342 20.9497 15 20.7908 15 20.625C15 20.4592 14.9342 20.3003 14.8169 20.1831C14.6997 20.0658 14.5408 20 14.375 20ZM19.7656 10C19.3305 10 18.9132 10.1729 18.6055 10.4805C18.2979 10.7882 18.125 11.2055 18.125 11.6406V20H19.6875C19.9361 20 20.1746 19.9012 20.3504 19.7254C20.5262 19.5496 20.625 19.3111 20.625 19.0625V18.6406C20.3294 18.5361 20.0647 18.3591 19.8553 18.1258C19.6458 17.8925 19.4983 17.6104 19.4261 17.3053C19.3539 17.0002 19.3595 16.6819 19.4422 16.3794C19.525 16.077 19.6823 15.8002 19.8998 15.5744C20.1172 15.3485 20.3879 15.1808 20.687 15.0867C20.986 14.9926 21.3039 14.975 21.6115 15.0356C21.9192 15.0961 22.2067 15.2329 22.4477 15.4334C22.6888 15.6339 22.8756 15.8917 22.9912 16.1831C23.4304 16.0649 23.8116 15.7911 24.0637 15.4126C24.3159 15.0341 24.4218 14.5768 24.3616 14.126C24.3015 13.6752 24.0795 13.2617 23.737 12.9625C23.3944 12.6633 22.9548 12.4989 22.5 12.5H22.0312C21.8655 12.5 21.7065 12.4342 21.5893 12.3169C21.4721 12.1997 21.4062 12.0408 21.4062 11.875V11.6406C21.4062 11.4252 21.3638 11.2118 21.2814 11.0128C21.1989 10.8137 21.0781 10.6329 20.9257 10.4805C20.7734 10.3282 20.5925 10.2073 20.3935 10.1249C20.1944 10.0424 19.9811 10 19.7656 10ZM21.25 16.25C21.0842 16.25 20.9253 16.3158 20.8081 16.4331C20.6908 16.5503 20.625 16.7092 20.625 16.875C20.625 17.0408 20.6908 17.1997 20.8081 17.3169C20.9253 17.4342 21.0842 17.5 21.25 17.5C21.4158 17.5 21.5747 17.4342 21.6919 17.3169C21.8092 17.1997 21.875 17.0408 21.875 16.875C21.875 16.7092 21.8092 16.5503 21.6919 16.4331C21.5747 16.3158 21.4158 16.25 21.25 16.25ZM14.375 13.75C14.2092 13.75 14.0503 13.8158 13.9331 13.9331C13.8158 14.0503 13.75 14.2092 13.75 14.375C13.75 14.5408 13.8158 14.6997 13.9331 14.8169C14.0503 14.9342 14.2092 15 14.375 15C14.5408 15 14.6997 14.9342 14.8169 14.8169C14.9342 14.6997 15 14.5408 15 14.375C15 14.2092 14.9342 14.0503 14.8169 13.9331C14.6997 13.8158 14.5408 13.75 14.375 13.75Z" fill="white"/>
</svg>
