<svg width="50" height="50" viewBox="0 0 50 50" fill="none" xmlns="http://www.w3.org/2000/svg">
<rect width="50" height="50" rx="25" fill="#0A6FEC"/>
<path d="M30.2084 25.0001H28.1251L26.0417 30.2084L23.9584 19.7917L21.8751 25.0001H19.7917" stroke="white" stroke-width="1.5" stroke-linecap="round" stroke-linejoin="round"/>
<path d="M15.625 25C15.625 20.5802 15.625 18.3708 16.9979 16.9979C18.3708 15.625 20.5812 15.625 25 15.625C29.4187 15.625 31.6292 15.625 33.0021 16.9979C34.375 18.3708 34.375 20.5812 34.375 25C34.375 29.4187 34.375 31.6292 33.0021 33.0021C31.6292 34.375 29.4187 34.375 25 34.375C20.5812 34.375 18.3708 34.375 16.9979 33.0021C15.625 31.6292 15.625 29.4187 15.625 25Z" stroke="white" stroke-width="1.5" stroke-linecap="round" stroke-linejoin="round"/>
</svg>
