<svg width="50" height="50" viewBox="0 0 50 50" fill="none" xmlns="http://www.w3.org/2000/svg">
<rect width="50" height="50" rx="25" fill="#0A6FEC"/>
<path d="M24.9999 20.1386C24.9999 18.2292 23.4374 16.6667 21.528 16.6667H14.5833V29.1667H21.5708C24.9999 29.1667 24.9999 32.6397 24.9999 32.6397M24.9999 20.1386C24.9999 18.2282 26.5624 16.6667 28.4718 16.6667H35.4166V29.1667H28.4718C24.9999 29.1667 24.9999 32.6397 24.9999 32.6397M24.9999 20.1386V32.6397M26.953 33.8105C27.1704 33.3604 27.509 32.9798 27.9307 32.7115C28.3525 32.4432 28.8407 32.2978 29.3405 32.2917H34.3749M23.0468 33.8105C22.8334 33.3573 22.4958 32.974 22.0731 32.7051C21.6505 32.4363 21.1602 32.2929 20.6593 32.2917H15.6249" stroke="white" stroke-width="2" stroke-miterlimit="10" stroke-linecap="round" stroke-linejoin="round"/>
</svg>
