<svg width="50" height="50" viewBox="0 0 50 50" fill="none" xmlns="http://www.w3.org/2000/svg">
<rect width="50" height="50" rx="25" fill="#0A6FEC"/>
<path d="M15.1041 25.0001C15.1041 20.3355 15.1041 18.0022 16.5531 16.5532C18.002 15.1042 20.3343 15.1042 25 15.1042C29.6645 15.1042 31.9979 15.1042 33.4468 16.5532C34.8958 18.0022 34.8958 20.3345 34.8958 25.0001C34.8958 29.6647 34.8958 31.998 33.4468 33.447C31.9979 34.8959 29.6656 34.8959 25 34.8959C20.3354 34.8959 18.002 34.8959 16.5531 33.447C15.1041 31.998 15.1041 29.6657 15.1041 25.0001Z" stroke="white" stroke-width="1.875" stroke-linejoin="round"/>
<path d="M25.0083 23.4459C24.5939 23.4459 24.1965 23.6105 23.9034 23.9036C23.6104 24.1966 23.4458 24.594 23.4458 25.0084C23.4458 25.4228 23.6104 25.8202 23.9034 26.1133C24.1965 26.4063 24.5939 26.5709 25.0083 26.5709C25.4227 26.5709 25.8201 26.4063 26.1132 26.1133C26.4062 25.8202 26.5708 25.4228 26.5708 25.0084C26.5708 24.594 26.4062 24.1966 26.1132 23.9036C25.8201 23.6105 25.4227 23.4459 25.0083 23.4459ZM25.0083 23.4459V19.7917M28.1406 28.1459L26.1104 26.1167" stroke="white" stroke-width="1.875" stroke-linecap="round" stroke-linejoin="round"/>
</svg>
