<svg width="24" height="24" viewBox="0 0 24 24" fill="none" xmlns="http://www.w3.org/2000/svg">
<path fill-rule="evenodd" clip-rule="evenodd" d="M12 15.75H18C18.5967 15.75 19.169 15.5129 19.591 15.091C20.0129 14.669 20.25 14.0967 20.25 13.5V10.5H18C16.8065 10.5 15.6619 10.0259 14.818 9.18198C13.9741 8.33807 13.5 7.19348 13.5 6V3.75H12C11.4033 3.75 10.831 3.98705 10.409 4.40901C9.98705 4.83097 9.75 5.40326 9.75 6V13.5C9.75 14.0967 9.98705 14.669 10.409 15.091C10.831 15.5129 11.4033 15.75 12 15.75ZM19.59 7.773C19.735 7.918 19.8565 8.077 19.9545 8.25H18C17.4033 8.25 16.831 8.01295 16.409 7.59099C15.9871 7.16903 15.75 6.59674 15.75 6V4.0455C15.924 4.1435 16.083 4.2645 16.227 4.4085L19.59 7.773ZM22.5 9.363C22.4993 8.17014 22.0251 7.02635 21.1815 6.183L17.82 2.817C17.4018 2.39902 16.9052 2.06757 16.3588 1.84159C15.8124 1.61561 15.2268 1.49954 14.6355 1.5H12C10.8065 1.5 9.66193 1.97411 8.81802 2.81802C7.97411 3.66193 7.5 4.80653 7.5 6H6C4.80653 6 3.66193 6.47411 2.81802 7.31802C1.97411 8.16193 1.5 9.30653 1.5 10.5V18C1.5 19.1935 1.97411 20.3381 2.81802 21.182C3.66193 22.0259 4.80653 22.5 6 22.5H12C13.1935 22.5 14.3381 22.0259 15.182 21.182C16.0259 20.3381 16.5 19.1935 16.5 18H18C19.1935 18 20.3381 17.5259 21.182 16.682C22.0259 15.8381 22.5 14.6935 22.5 13.5V9.363ZM14.25 18H12C10.8065 18 9.66193 17.5259 8.81802 16.682C7.97411 15.8381 7.5 14.6935 7.5 13.5V8.25H6C5.40326 8.25 4.83097 8.48705 4.40901 8.90901C3.98705 9.33097 3.75 9.90326 3.75 10.5V18C3.75 18.5967 3.98705 19.169 4.40901 19.591C4.83097 20.0129 5.40326 20.25 6 20.25H12C12.5967 20.25 13.169 20.0129 13.591 19.591C14.0129 19.169 14.25 18.5967 14.25 18Z" fill="#0A6FEC"/>
</svg>
