<svg width="35" height="35" viewBox="0 0 35 35" fill="none" xmlns="http://www.w3.org/2000/svg">
<rect width="35" height="35" rx="17.5" fill="#0A6FEC"/>
<path d="M27.36 10.892C27.788 11.996 27.189 12.752 26.03 13.498C25.095 14.098 23.904 14.75 22.642 15.863C21.404 16.954 20.197 18.269 19.124 19.563C18.206 20.6739 17.332 21.8205 16.504 23C16.09 23.591 15.511 24.473 15.511 24.473C15.3032 24.794 15.0171 25.0567 14.6796 25.2364C14.342 25.4161 13.9643 25.5068 13.582 25.5C13.1999 25.4978 12.8247 25.3978 12.4922 25.2096C12.1596 25.0215 11.8807 24.7514 11.682 24.425C10.683 22.748 9.913 22.085 9.559 21.848C8.612 21.21 7.5 21.118 7.5 19.634C7.5 18.455 8.495 17.5 9.722 17.5C10.589 17.532 11.394 17.873 12.108 18.353C12.564 18.659 13.047 19.065 13.549 19.598C14.2218 18.6799 14.9214 17.7819 15.647 16.905C16.804 15.51 18.17 14.013 19.635 12.721C21.075 11.451 22.74 10.262 24.505 9.63401C25.655 9.22401 26.933 9.78701 27.36 10.892Z" stroke="white" stroke-width="1.5" stroke-linecap="round" stroke-linejoin="round"/>
</svg>
