<svg width="35" height="35" viewBox="0 0 35 35" fill="none" xmlns="http://www.w3.org/2000/svg">
<rect width="35" height="35" rx="17.5" fill="#0A6FEC"/>
<path d="M25.0001 16.6667C24.7791 16.6667 24.5671 16.7545 24.4108 16.9107C24.2545 17.067 24.1667 17.279 24.1667 17.5V19.6583L18.9251 14.4083C18.8476 14.3302 18.7554 14.2682 18.6539 14.2259C18.5523 14.1836 18.4434 14.1618 18.3334 14.1618C18.2234 14.1618 18.1145 14.1836 18.0129 14.2259C17.9114 14.2682 17.8192 14.3302 17.7417 14.4083L15.0001 17.1583L10.5917 12.7417C10.4348 12.5847 10.222 12.4966 10.0001 12.4966C9.77816 12.4966 9.56533 12.5847 9.40841 12.7417C9.25149 12.8986 9.16333 13.1114 9.16333 13.3333C9.16333 13.5552 9.25149 13.7681 9.40841 13.925L14.4084 18.925C14.4859 19.0031 14.578 19.0651 14.6796 19.1074C14.7811 19.1497 14.8901 19.1715 15.0001 19.1715C15.1101 19.1715 15.219 19.1497 15.3206 19.1074C15.4221 19.0651 15.5143 19.0031 15.5917 18.925L18.3334 16.175L22.9917 20.8333H20.8334C20.6124 20.8333 20.4004 20.9211 20.2442 21.0774C20.0879 21.2337 20.0001 21.4456 20.0001 21.6667C20.0001 21.8877 20.0879 22.0996 20.2442 22.2559C20.4004 22.4122 20.6124 22.5 20.8334 22.5H25.0001C25.109 22.4987 25.2166 22.476 25.3167 22.4333C25.5204 22.3488 25.6822 22.1869 25.7667 21.9833C25.8094 21.8831 25.8321 21.7756 25.8334 21.6667V17.5C25.8334 17.279 25.7456 17.067 25.5893 16.9107C25.4331 16.7545 25.2211 16.6667 25.0001 16.6667Z" fill="white"/>
</svg>
