<svg width="23" height="23" viewBox="0 0 23 23" fill="none" xmlns="http://www.w3.org/2000/svg">
<path d="M11.2284 1.49713L0 6.73703L2.99423 8.08443V10.6295C2.09596 10.929 1.49711 11.8272 1.49711 12.7255C1.49711 13.6238 2.09596 14.522 2.99423 14.8214V14.9712L1.64683 18.1151C1.19769 19.4625 1.49711 20.9596 3.74279 20.9596C5.98846 20.9596 6.28788 19.4625 5.83875 18.1151L4.49134 14.9712C5.38961 14.522 5.98846 13.7735 5.98846 12.7255C5.98846 11.6775 5.38961 10.929 4.49134 10.6295V8.83299L11.2284 11.9769L22.4567 6.73703L11.2284 1.49713ZM17.8157 11.2284L11.0786 14.2226L7.48557 12.5758V12.7255C7.48557 13.7735 7.03644 14.6717 6.28788 15.4203L7.18615 17.5163V17.666C7.33586 18.2648 7.48557 18.8637 7.33586 19.4625C8.38384 19.9116 9.58153 20.2111 11.0786 20.2111C16.0191 20.2111 17.8157 17.2168 17.8157 15.7197V11.2284Z" fill="#2880FB"/>
</svg>
