<svg width="40" height="40" viewBox="0 0 40 40" fill="none" xmlns="http://www.w3.org/2000/svg">
<path fill-rule="evenodd" clip-rule="evenodd" d="M25.9717 2.36673C28.1584 3.10173 29.5834 5.16006 29.5834 7.85839C29.5834 9.55339 28.62 11.1151 27.545 12.3584C26.44 13.6401 25.0434 14.7884 23.82 15.6801L23.665 15.7934C22.4784 16.6601 21.4984 17.3767 20 17.3767C18.5 17.3767 17.5234 16.6601 16.3367 15.7934L16.18 15.6801C14.9567 14.7884 13.56 13.6401 12.455 12.3601C11.3834 11.1151 10.4167 9.55339 10.4167 7.85839C10.4167 5.16006 11.8417 3.10339 14.0284 2.36673C15.895 1.73839 18.065 2.15339 20 3.56173C21.935 2.15339 24.1067 1.73839 25.9717 2.36673ZM25.175 4.73673C24.0884 4.37006 22.4667 4.60673 20.8467 6.09673C20.616 6.30872 20.3142 6.42637 20.0009 6.42637C19.6876 6.42637 19.3857 6.30872 19.155 6.09673C17.5334 4.60673 15.9134 4.37006 14.8267 4.73673C13.7834 5.08673 12.9167 6.09339 12.9167 7.85839C12.9167 8.63673 13.3917 9.61673 14.3484 10.7267C15.275 11.8017 16.5017 12.8217 17.6534 13.6601C19.0584 14.6851 19.3917 14.8767 20 14.8767C20.6084 14.8767 20.9417 14.6851 22.3484 13.6601C23.4984 12.8217 24.725 11.8017 25.6517 10.7267C26.61 9.61673 27.085 8.63673 27.085 7.85839C27.085 6.09173 26.2167 5.08673 25.175 4.73673ZM14.4734 24.0801C17.5834 23.4767 20.9117 23.6134 23.6067 25.2201C23.9834 25.4451 24.34 25.7267 24.6484 26.0734C25.275 26.7767 25.5984 27.6517 25.6134 28.5284C25.9311 28.3217 26.2517 28.0956 26.575 27.8501L29.5884 25.5751C30.3433 25.021 31.2553 24.7223 32.1917 24.7223C33.1281 24.7223 34.0401 25.021 34.795 25.5751C36.1867 26.6251 36.7434 28.5134 35.745 30.1117C35.0367 31.2484 33.97 32.8201 32.8834 33.8267C31.7834 34.8434 30.2217 35.6984 29.04 36.2701C27.6034 36.9634 26.0534 37.3451 24.545 37.5901C21.4617 38.0901 18.255 38.0117 15.2084 37.3851C13.6372 37.062 12.0374 36.8984 10.4334 36.8967H6.6667C6.33518 36.8967 6.01724 36.765 5.78282 36.5306C5.5484 36.2962 5.4167 35.9782 5.4167 35.6467C5.4167 35.3152 5.5484 34.9973 5.78282 34.7628C6.01724 34.5284 6.33518 34.3967 6.6667 34.3967H10.4334C12.2034 34.3967 13.9917 34.5801 15.7134 34.9367C18.4903 35.5065 21.3474 35.5692 24.1467 35.1217C25.5267 34.8984 26.8167 34.5667 27.9534 34.0184C29.0917 33.4684 30.3717 32.7451 31.1834 31.9917C32.005 31.2317 32.9234 29.9134 33.625 28.7901C33.8367 28.4501 33.8067 27.9601 33.2884 27.5684C32.9676 27.3417 32.5845 27.2199 32.1917 27.2199C31.7989 27.2199 31.4158 27.3417 31.095 27.5684L28.0834 29.8451C26.88 30.7534 25.4 31.7251 23.565 32.0167C23.3728 32.0477 23.18 32.0749 22.9867 32.0984C22.8911 32.1151 22.7917 32.1262 22.6884 32.1317C21.6176 32.2357 20.5392 32.2357 19.4684 32.1317C19.3024 32.1197 19.1404 32.0746 18.9921 31.9992C18.8437 31.9237 18.7119 31.8194 18.6044 31.6923C18.4969 31.5652 18.4159 31.418 18.366 31.2592C18.3162 31.1003 18.2986 30.9332 18.3143 30.7675C18.3299 30.6018 18.3785 30.4408 18.4572 30.2942C18.5359 30.1475 18.643 30.018 18.7724 29.9133C18.9018 29.8086 19.0508 29.7308 19.2107 29.6844C19.3705 29.6381 19.538 29.6241 19.7034 29.6434C20.75 29.7417 21.6867 29.7201 22.4834 29.6384L22.5334 29.6334C22.6889 29.5369 22.821 29.4071 22.9203 29.2533C23.0195 29.0996 23.0834 28.9257 23.1073 28.7442C23.1312 28.5628 23.1146 28.3783 23.0586 28.2041C23.0025 28.0299 22.9086 27.8702 22.7834 27.7367C22.6497 27.5914 22.4952 27.4668 22.325 27.3667C20.3567 26.1917 17.7267 25.9967 14.9484 26.5334C12.2343 27.0782 9.66143 28.176 7.39004 29.7584C7.25609 29.8534 7.10474 29.9211 6.94464 29.9576C6.78454 29.9941 6.61881 29.9987 6.45693 29.9711C6.29505 29.9436 6.14017 29.8844 6.00115 29.797C5.86214 29.7096 5.74169 29.5957 5.6467 29.4617C5.55171 29.3278 5.48404 29.1764 5.44754 29.0163C5.41104 28.8562 5.40643 28.6905 5.43398 28.5286C5.48962 28.2017 5.67285 27.9102 5.94337 27.7184C8.50558 25.9307 11.4097 24.692 14.4734 24.0801Z" fill="white"/>
</svg>
