<svg width="80" height="80" viewBox="0 0 80 80" fill="none" xmlns="http://www.w3.org/2000/svg">
<rect width="80" height="80" rx="40" fill="#0A6FEC"/>
<path fill-rule="evenodd" clip-rule="evenodd" d="M32.105 25.4317C32.2041 24.512 32.6396 23.6614 33.3278 23.0434C34.016 22.4253 34.9083 22.0834 35.8333 22.0834H44.1667C45.0917 22.0834 45.984 22.4253 46.6722 23.0434C47.3604 23.6614 47.7959 24.512 47.895 25.4317C49.1667 25.4567 50.2667 25.5234 51.2067 25.695C52.47 25.9284 53.545 26.37 54.42 27.245C55.4233 28.2484 55.8533 29.5117 56.0567 31.0117C56.25 32.455 56.25 34.2934 56.25 36.5717V46.755C56.25 49.035 56.25 50.8717 56.0567 52.3167C55.8533 53.8167 55.4233 55.08 54.42 56.0834C53.4167 57.0867 52.1533 57.5167 50.6533 57.72C49.2083 57.9134 47.37 57.9134 45.0917 57.9134H34.9083C32.63 57.9134 30.7917 57.9134 29.3467 57.72C27.8467 57.5184 26.5833 57.0867 25.58 56.0834C24.5767 55.08 24.1467 53.8167 23.945 52.3167C23.75 50.8717 23.75 49.0334 23.75 46.755V36.5717C23.75 34.2934 23.75 32.455 23.945 31.0117C24.145 29.5117 24.5783 28.2484 25.58 27.245C26.455 26.37 27.53 25.9284 28.7933 25.695C29.7333 25.5234 30.8333 25.4567 32.105 25.4317ZM32.1083 27.9317C30.9117 27.9567 29.9883 28.0184 29.245 28.155C28.3017 28.3284 27.7533 28.605 27.3483 29.0117C26.8867 29.4734 26.5867 30.1217 26.4217 31.345C26.2533 32.6034 26.25 34.2717 26.25 36.6634V46.6634C26.25 49.0567 26.2533 50.725 26.4217 51.9834C26.5867 53.2067 26.8883 53.8534 27.3483 54.3167C27.81 54.7767 28.4567 55.0784 29.6817 55.2417C30.9383 55.4117 32.6083 55.4134 35 55.4134H45C47.3917 55.4134 49.06 55.4117 50.32 55.2417C51.5433 55.0784 52.19 54.7767 52.6517 54.315C53.1133 53.855 53.4133 53.2067 53.5783 51.9834C53.7467 50.725 53.75 49.0567 53.75 46.6634V36.6634C53.75 34.2717 53.7467 32.6034 53.5783 31.3434C53.4133 30.1217 53.1117 29.4734 52.6517 29.0117C52.245 28.6067 51.6983 28.3284 50.755 28.155C50.0117 28.0184 49.0883 27.9567 47.8917 27.9317C47.7858 28.8454 47.3478 29.6883 46.661 30.3001C45.9742 30.912 45.0865 31.25 44.1667 31.25H35.8333C34.9138 31.2501 34.0263 30.9122 33.3395 30.3008C32.6527 29.6893 32.2146 28.8468 32.1083 27.9334M35.8333 24.5834C35.5018 24.5834 35.1839 24.7151 34.9495 24.9495C34.715 25.1839 34.5833 25.5019 34.5833 25.8334V27.5C34.5833 28.19 35.1433 28.75 35.8333 28.75H44.1667C44.4982 28.75 44.8161 28.6183 45.0505 28.3839C45.285 28.1495 45.4167 27.8316 45.4167 27.5V25.8334C45.4167 25.5019 45.285 25.1839 45.0505 24.9495C44.8161 24.7151 44.4982 24.5834 44.1667 24.5834H35.8333ZM45.9133 37.48C46.1396 37.7223 46.2604 38.0445 46.2492 38.3758C46.2379 38.7071 46.0956 39.0204 45.8533 39.2467L38.71 45.9134C38.4785 46.1297 38.1735 46.25 37.8567 46.25C37.5398 46.25 37.2348 46.1297 37.0033 45.9134L34.1467 43.2467C34.0249 43.1351 33.9265 43.0005 33.857 42.8506C33.7876 42.7008 33.7486 42.5386 33.7422 42.3736C33.7358 42.2086 33.7621 42.0439 33.8197 41.8891C33.8774 41.7343 33.9651 41.5925 34.0778 41.4718C34.1906 41.3511 34.3262 41.254 34.4767 41.186C34.6272 41.118 34.7897 41.0805 34.9548 41.0757C35.1199 41.0709 35.2843 41.0988 35.4385 41.1579C35.5928 41.217 35.7337 41.3061 35.8533 41.42L37.8567 43.29L44.1467 37.42C44.3889 37.1937 44.7111 37.0729 45.0424 37.0842C45.3737 37.0954 45.687 37.2378 45.9133 37.48Z" fill="white"/>
</svg>
