<svg width="22" height="22" viewBox="0 0 22 22" fill="none" xmlns="http://www.w3.org/2000/svg">
<path d="M11 19.8C15.8606 19.8 19.8 15.8606 19.8 11C19.8 6.13938 15.8606 2.2 11 2.2C6.13933 2.2 2.19995 6.13938 2.19995 11C2.19995 15.8606 6.13933 19.8 11 19.8ZM14.1143 15.8847C13.4131 14.9222 12.2787 14.3 11 14.3C9.7212 14.3 8.58683 14.9222 7.88558 15.8847C7.61745 16.2525 7.10183 16.335 6.73401 16.0669C6.3662 15.7988 6.2837 15.2831 6.55183 14.9153C7.55214 13.5438 9.1712 12.65 11 12.65C12.8287 12.65 14.4478 13.5438 15.4481 14.9153C15.7162 15.2831 15.6337 15.7988 15.2659 16.0669C14.8981 16.335 14.3825 16.2525 14.1143 15.8847ZM7.14995 9.35C7.14995 8.74156 7.64151 8.25 8.24995 8.25C8.85839 8.25 9.34995 8.74156 9.34995 9.35C9.34995 9.95844 8.85839 10.45 8.24995 10.45C7.64151 10.45 7.14995 9.95844 7.14995 9.35ZM13.75 8.25C14.3584 8.25 14.85 8.74156 14.85 9.35C14.85 9.95844 14.3584 10.45 13.75 10.45C13.1415 10.45 12.65 9.95844 12.65 9.35C12.65 8.74156 13.1415 8.25 13.75 8.25Z" fill="white"/>
</svg>
