<svg width="35" height="35" viewBox="0 0 35 35" fill="none" xmlns="http://www.w3.org/2000/svg">
<rect width="35" height="35" rx="17.5" fill="#0A6FEC"/>
<path fill-rule="evenodd" clip-rule="evenodd" d="M17.5 20.625H22.5C22.9973 20.625 23.4742 20.4275 23.8258 20.0758C24.1775 19.7242 24.375 19.2473 24.375 18.75V16.25H22.5C21.5054 16.25 20.5516 15.8549 19.8483 15.1517C19.1451 14.4484 18.75 13.4946 18.75 12.5V10.625H17.5C17.0027 10.625 16.5258 10.8225 16.1742 11.1742C15.8225 11.5258 15.625 12.0027 15.625 12.5V18.75C15.625 19.2473 15.8225 19.7242 16.1742 20.0758C16.5258 20.4275 17.0027 20.625 17.5 20.625ZM23.825 13.9775C23.9458 14.0983 24.0471 14.2308 24.1288 14.375H22.5C22.0027 14.375 21.5258 14.1775 21.1742 13.8258C20.8225 13.4742 20.625 12.9973 20.625 12.5V10.8713C20.77 10.9529 20.9025 11.0538 21.0225 11.1738L23.825 13.9775ZM26.25 15.3025C26.2495 14.3085 25.8543 13.3553 25.1513 12.6525L22.35 9.8475C22.0015 9.49919 21.5877 9.22297 21.1323 9.03466C20.677 8.84634 20.189 8.74961 19.6962 8.75H17.5C16.5054 8.75 15.5516 9.14509 14.8483 9.84835C14.1451 10.5516 13.75 11.5054 13.75 12.5H12.5C11.5054 12.5 10.5516 12.8951 9.84835 13.5984C9.14509 14.3016 8.75 15.2554 8.75 16.25V22.5C8.75 23.4946 9.14509 24.4484 9.84835 25.1517C10.5516 25.8549 11.5054 26.25 12.5 26.25H17.5C18.4946 26.25 19.4484 25.8549 20.1517 25.1517C20.8549 24.4484 21.25 23.4946 21.25 22.5H22.5C23.4946 22.5 24.4484 22.1049 25.1517 21.4017C25.8549 20.6984 26.25 19.7446 26.25 18.75V15.3025ZM19.375 22.5H17.5C16.5054 22.5 15.5516 22.1049 14.8483 21.4017C14.1451 20.6984 13.75 19.7446 13.75 18.75V14.375H12.5C12.0027 14.375 11.5258 14.5725 11.1742 14.9242C10.8225 15.2758 10.625 15.7527 10.625 16.25V22.5C10.625 22.9973 10.8225 23.4742 11.1742 23.8258C11.5258 24.1775 12.0027 24.375 12.5 24.375H17.5C17.9973 24.375 18.4742 24.1775 18.8258 23.8258C19.1775 23.4742 19.375 22.9973 19.375 22.5Z" fill="white"/>
</svg>
