<svg width="40" height="40" viewBox="0 0 40 40" fill="none" xmlns="http://www.w3.org/2000/svg">
<path d="M4.16663 20C4.16663 12.5366 4.16663 8.80329 6.48496 6.48496C8.80329 4.16663 12.535 4.16663 20 4.16663C27.4633 4.16663 31.1966 4.16663 33.515 6.48496C35.8333 8.80329 35.8333 12.535 35.8333 20C35.8333 27.4633 35.8333 31.1966 33.515 33.515C31.1966 35.8333 27.465 35.8333 20 35.8333C12.5366 35.8333 8.80329 35.8333 6.48496 33.515C4.16663 31.1966 4.16663 27.465 4.16663 20Z" stroke="white" stroke-width="3" stroke-linejoin="round"/>
<path d="M20.0133 17.5133C19.3503 17.5133 18.7144 17.7767 18.2455 18.2455C17.7767 18.7144 17.5133 19.3503 17.5133 20.0133C17.5133 20.6763 17.7767 21.3122 18.2455 21.7811C18.7144 22.2499 19.3503 22.5133 20.0133 22.5133C20.6763 22.5133 21.3122 22.2499 21.7811 21.7811C22.2499 21.3122 22.5133 20.6763 22.5133 20.0133C22.5133 19.3503 22.2499 18.7144 21.7811 18.2455C21.3122 17.7767 20.6763 17.5133 20.0133 17.5133ZM20.0133 17.5133V11.6666M25.025 25.0333L21.7766 21.7866" stroke="white" stroke-width="3" stroke-linecap="round" stroke-linejoin="round"/>
</svg>
