<svg width="80" height="80" viewBox="0 0 80 80" fill="none" xmlns="http://www.w3.org/2000/svg">
<rect width="80" height="80" rx="40" fill="#0A6FEC"/>
<path fill-rule="evenodd" clip-rule="evenodd" d="M45.9717 22.3667C48.1584 23.1017 49.5834 25.1601 49.5834 27.8584C49.5834 29.5534 48.62 31.1151 47.545 32.3584C46.44 33.6401 45.0434 34.7884 43.82 35.6801L43.665 35.7934C42.4784 36.6601 41.4984 37.3767 40 37.3767C38.5 37.3767 37.5234 36.6601 36.3367 35.7934L36.18 35.6801C34.9567 34.7884 33.56 33.6401 32.455 32.3601C31.3834 31.1151 30.4167 29.5534 30.4167 27.8584C30.4167 25.1601 31.8417 23.1034 34.0284 22.3667C35.895 21.7384 38.065 22.1534 40 23.5617C41.935 22.1534 44.1067 21.7384 45.9717 22.3667ZM45.175 24.7367C44.0884 24.3701 42.4667 24.6067 40.8467 26.0967C40.616 26.3087 40.3142 26.4264 40.0009 26.4264C39.6876 26.4264 39.3857 26.3087 39.155 26.0967C37.5334 24.6067 35.9134 24.3701 34.8267 24.7367C33.7834 25.0867 32.9167 26.0934 32.9167 27.8584C32.9167 28.6367 33.3917 29.6167 34.3484 30.7267C35.275 31.8017 36.5017 32.8217 37.6534 33.6601C39.0584 34.6851 39.3917 34.8767 40 34.8767C40.6084 34.8767 40.9417 34.6851 42.3484 33.6601C43.4984 32.8217 44.725 31.8017 45.6517 30.7267C46.61 29.6167 47.085 28.6367 47.085 27.8584C47.085 26.0917 46.2167 25.0867 45.175 24.7367ZM34.4734 44.0801C37.5834 43.4767 40.9117 43.6134 43.6067 45.2201C43.9834 45.4451 44.34 45.7267 44.6484 46.0734C45.275 46.7767 45.5984 47.6517 45.6134 48.5284C45.9311 48.3217 46.2517 48.0956 46.575 47.8501L49.5884 45.5751C50.3433 45.021 51.2553 44.7223 52.1917 44.7223C53.1281 44.7223 54.0401 45.021 54.795 45.5751C56.1867 46.6251 56.7434 48.5134 55.745 50.1117C55.0367 51.2484 53.97 52.8201 52.8834 53.8267C51.7834 54.8434 50.2217 55.6984 49.04 56.2701C47.6034 56.9634 46.0534 57.3451 44.545 57.5901C41.4617 58.0901 38.255 58.0117 35.2084 57.3851C33.6372 57.062 32.0374 56.8984 30.4334 56.8967H26.6667C26.3352 56.8967 26.0172 56.765 25.7828 56.5306C25.5484 56.2962 25.4167 55.9782 25.4167 55.6467C25.4167 55.3152 25.5484 54.9973 25.7828 54.7628C26.0172 54.5284 26.3352 54.3967 26.6667 54.3967H30.4334C32.2034 54.3967 33.9917 54.5801 35.7134 54.9367C38.4903 55.5065 41.3474 55.5692 44.1467 55.1217C45.5267 54.8984 46.8167 54.5667 47.9534 54.0184C49.0917 53.4684 50.3717 52.7451 51.1834 51.9917C52.005 51.2317 52.9234 49.9134 53.625 48.7901C53.8367 48.4501 53.8067 47.9601 53.2884 47.5684C52.9676 47.3417 52.5845 47.2199 52.1917 47.2199C51.7989 47.2199 51.4158 47.3417 51.095 47.5684L48.0834 49.8451C46.88 50.7534 45.4 51.7251 43.565 52.0167C43.3728 52.0477 43.18 52.0749 42.9867 52.0984C42.8911 52.1151 42.7917 52.1262 42.6884 52.1317C41.6176 52.2357 40.5392 52.2357 39.4684 52.1317C39.3024 52.1197 39.1404 52.0746 38.9921 51.9992C38.8437 51.9237 38.7119 51.8194 38.6044 51.6923C38.4969 51.5652 38.4159 51.418 38.366 51.2592C38.3162 51.1003 38.2986 50.9332 38.3143 50.7675C38.3299 50.6018 38.3785 50.4408 38.4572 50.2942C38.5359 50.1475 38.643 50.018 38.7724 49.9133C38.9018 49.8086 39.0508 49.7308 39.2107 49.6844C39.3705 49.6381 39.538 49.6241 39.7034 49.6434C40.75 49.7417 41.6867 49.7201 42.4834 49.6384L42.5334 49.6334C42.6889 49.5369 42.821 49.4071 42.9203 49.2533C43.0195 49.0996 43.0834 48.9257 43.1073 48.7442C43.1312 48.5628 43.1146 48.3783 43.0586 48.2041C43.0025 48.0299 42.9086 47.8702 42.7834 47.7367C42.6497 47.5914 42.4952 47.4668 42.325 47.3667C40.3567 46.1917 37.7267 45.9967 34.9484 46.5334C32.2343 47.0782 29.6614 48.176 27.39 49.7584C27.2561 49.8534 27.1047 49.9211 26.9446 49.9576C26.7845 49.9941 26.6188 49.9987 26.4569 49.9711C26.295 49.9436 26.1402 49.8844 26.0012 49.797C25.8621 49.7096 25.7417 49.5957 25.6467 49.4617C25.5517 49.3278 25.484 49.1764 25.4475 49.0163C25.411 48.8562 25.4064 48.6905 25.434 48.5286C25.4896 48.2017 25.6729 47.9102 25.9434 47.7184C28.5056 45.9307 31.4097 44.692 34.4734 44.0801Z" fill="white"/>
</svg>
