<svg width="80" height="80" viewBox="0 0 80 80" fill="none" xmlns="http://www.w3.org/2000/svg">
<rect width="80" height="80" rx="40" fill="#0A6FEC"/>
<path d="M24.1666 40C24.1666 32.5366 24.1666 28.8033 26.485 26.485C28.8033 24.1666 32.535 24.1666 40 24.1666C47.4633 24.1666 51.1966 24.1666 53.515 26.485C55.8333 28.8033 55.8333 32.535 55.8333 40C55.8333 47.4633 55.8333 51.1966 53.515 53.515C51.1966 55.8333 47.465 55.8333 40 55.8333C32.5366 55.8333 28.8033 55.8333 26.485 53.515C24.1666 51.1966 24.1666 47.465 24.1666 40Z" stroke="white" stroke-width="3" stroke-linejoin="round"/>
<path d="M40.0133 37.5133C39.3503 37.5133 38.7144 37.7767 38.2455 38.2455C37.7767 38.7144 37.5133 39.3503 37.5133 40.0133C37.5133 40.6763 37.7767 41.3122 38.2455 41.7811C38.7144 42.2499 39.3503 42.5133 40.0133 42.5133C40.6763 42.5133 41.3122 42.2499 41.7811 41.7811C42.2499 41.3122 42.5133 40.6763 42.5133 40.0133C42.5133 39.3503 42.2499 38.7144 41.7811 38.2455C41.3122 37.7767 40.6763 37.5133 40.0133 37.5133ZM40.0133 37.5133V31.6666M45.025 45.0333L41.7766 41.7866" stroke="white" stroke-width="3" stroke-linecap="round" stroke-linejoin="round"/>
</svg>
