<svg width="24" height="24" viewBox="0 0 24 24" fill="none" xmlns="http://www.w3.org/2000/svg">
<path d="M6.17297 13.0038L6.34297 13.3748C7.07071 14.8793 8.21638 16.1423 9.64297 17.0128L9.90797 17.1678C9.93608 17.1835 9.95949 17.2065 9.97578 17.2342C9.99208 17.262 10.0007 17.2936 10.0007 17.3258C10.0007 17.358 9.99208 17.3897 9.97578 17.4174C9.95949 17.4452 9.93608 17.4681 9.90797 17.4838C8.36038 18.3547 7.11635 19.6783 6.34297 21.2768L6.17297 21.6488C6.15788 21.6821 6.13354 21.7102 6.10286 21.73C6.07218 21.7498 6.03646 21.7603 5.99997 21.7603C5.96347 21.7603 5.92775 21.7498 5.89707 21.73C5.86639 21.7102 5.84206 21.6821 5.82697 21.6488L5.65697 21.2768C4.88359 19.6783 3.63955 18.3547 2.09197 17.4838C2.06386 17.4681 2.04045 17.4452 2.02415 17.4174C2.00786 17.3897 1.99927 17.358 1.99927 17.3258C1.99927 17.2936 2.00786 17.262 2.02415 17.2342C2.04045 17.2065 2.06386 17.1835 2.09197 17.1678L2.35697 17.0128C3.78356 16.1423 4.92922 14.8793 5.65697 13.3748L5.82697 13.0038C5.84206 12.9706 5.86639 12.9424 5.89707 12.9227C5.92775 12.9029 5.96347 12.8924 5.99997 12.8924C6.03646 12.8924 6.07218 12.9029 6.10286 12.9227C6.13354 12.9424 6.15788 12.9706 6.17297 13.0038ZM15.078 2.72984C16.3933 5.81347 18.6912 8.37575 21.614 10.0178C21.6631 10.0454 21.704 10.0855 21.7325 10.1341C21.7609 10.1827 21.7759 10.238 21.7759 10.2943C21.7759 10.3507 21.7609 10.406 21.7325 10.4546C21.704 10.5032 21.6631 10.5433 21.614 10.5708C18.691 12.2132 16.3931 14.7758 15.078 17.8598C15.052 17.9184 15.0096 17.9681 14.9559 18.003C14.9022 18.0379 14.8395 18.0565 14.7755 18.0565C14.7114 18.0565 14.6488 18.0379 14.5951 18.003C14.5414 17.9681 14.499 17.9184 14.473 17.8598C13.1578 14.7758 10.8599 12.2132 7.93697 10.5708C7.88784 10.5433 7.84694 10.5032 7.81848 10.4546C7.79001 10.406 7.775 10.3507 7.775 10.2943C7.775 10.238 7.79001 10.1827 7.81848 10.1341C7.84694 10.0855 7.88784 10.0454 7.93697 10.0178C10.8597 8.37575 13.1576 5.81347 14.473 2.72984C14.499 2.67131 14.5414 2.62158 14.5951 2.58668C14.6488 2.55178 14.7114 2.5332 14.7755 2.5332C14.8395 2.5332 14.9022 2.55178 14.9559 2.58668C15.0096 2.62158 15.052 2.67131 15.078 2.72984Z" fill="white"/>
</svg>
