<svg width="20" height="20" viewBox="0 0 20 20" fill="none" xmlns="http://www.w3.org/2000/svg">
<path d="M6.17996 11.6666V8.74992M6.17996 8.74992V3.54159C6.17996 3.15481 6.33361 2.78388 6.6071 2.51039C6.88059 2.2369 7.25152 2.08325 7.63829 2.08325C8.02507 2.08325 8.396 2.2369 8.66949 2.51039C8.94298 2.78388 9.09663 3.15481 9.09663 3.54159V7.91659L11.6608 8.31492C13.2683 8.55575 14.0716 8.67659 14.6375 9.01492C15.5725 9.57575 16.25 10.4166 16.25 11.6449C16.25 12.4999 16.0383 13.0741 15.525 14.6158C15.1983 15.5941 15.0358 16.0824 14.77 16.4699C14.332 17.1076 13.6859 17.573 12.9425 17.7866C12.4916 17.9166 11.9758 17.9166 10.945 17.9166H9.77413C8.28663 17.9166 7.54329 17.9166 6.90496 17.6374C6.61628 17.5113 6.34694 17.3449 6.10496 17.1433C5.56996 16.6974 5.23829 16.0324 4.57246 14.7016C4.03329 13.6233 3.76413 13.0849 3.75079 12.5249C3.74495 12.2729 3.77726 12.0214 3.84663 11.7791C3.99996 11.2408 4.39663 10.7874 5.19163 9.87908L6.17996 8.74992Z" stroke="white" stroke-width="1.5" stroke-linecap="round" stroke-linejoin="round"/>
</svg>
